<svg width="47" height="24" viewBox="0 0 47 24" fill="none" xmlns="http://www.w3.org/2000/svg">
<path d="M43 23.5L46 17.5H0.5L4 23.5H43Z" stroke="black" stroke-linecap="round" stroke-linejoin="round"/>
<path d="M5 17L5.66667 14M13.5 17L12 12.5H6L5.66667 14M5.66667 14L1 12M16 17L17 14.5H20L21 11.5H24M30.5 17L27 11.5H24M24 11.5L26 7.5H28M42.5 17L38 7.5H28M28 7.5L28.5 5.5L29 3.5H36L36.2857 4.5M37 7L36.6429 5.75M36.2857 4.5L42.5 1M36.2857 4.5L36.6429 5.75M36.6429 5.75L41 3.5" stroke="black" stroke-linecap="round" stroke-linejoin="round"/>
<path d="M29.75 9.5C29.75 9.91421 29.4142 10.25 29 10.25C28.5858 10.25 28.25 9.91421 28.25 9.5C28.25 9.08579 28.5858 8.75 29 8.75C29.4142 8.75 29.75 9.08579 29.75 9.5Z" fill="#B5D6FF" stroke="black" stroke-width="0.5"/>
<path d="M32.25 9.5C32.25 9.91421 31.9142 10.25 31.5 10.25C31.0858 10.25 30.75 9.91421 30.75 9.5C30.75 9.08579 31.0858 8.75 31.5 8.75C31.9142 8.75 32.25 9.08579 32.25 9.5Z" fill="#B5D6FF" stroke="black" stroke-width="0.5"/>
<path d="M34.75 9.5C34.75 9.91421 34.4142 10.25 34 10.25C33.5858 10.25 33.25 9.91421 33.25 9.5C33.25 9.08579 33.5858 8.75 34 8.75C34.4142 8.75 34.75 9.08579 34.75 9.5Z" fill="#B5D6FF" stroke="black" stroke-width="0.5"/>
<path d="M37.25 9.5C37.25 9.91421 36.9142 10.25 36.5 10.25C36.0858 10.25 35.75 9.91421 35.75 9.5C35.75 9.08579 36.0858 8.75 36.5 8.75C36.9142 8.75 37.25 9.08579 37.25 9.5Z" fill="#B5D6FF" stroke="black" stroke-width="0.5"/>
</svg>
