<svg width="27" height="14" viewBox="0 0 27 14" fill="none" xmlns="http://www.w3.org/2000/svg">
<path d="M4.00002 4.85907L4.44494 2.92954M10 4.85907L9.27551 1H4.88985L4.44494 2.92954M4.44494 2.92954L1 1.35907M23.5 12.8919H7.00002L4.00002 8.2664L2.11438 5.35907H16.5L19 8.2664H26L23.5 12.8919Z" stroke="black" stroke-linecap="round" stroke-linejoin="round"/>
<path d="M7.75 7.89188C7.75 8.30609 7.41421 8.64188 7 8.64188C6.58579 8.64188 6.25 8.30609 6.25 7.89188C6.25 7.47766 6.58579 7.14188 7 7.14188C7.41421 7.14188 7.75 7.47766 7.75 7.89188Z" fill="#B5D6FF" stroke="black" stroke-width="0.5"/>
<path d="M10.25 7.89188C10.25 8.30609 9.91421 8.64188 9.5 8.64188C9.08579 8.64188 8.75 8.30609 8.75 7.89188C8.75 7.47766 9.08579 7.14188 9.5 7.14188C9.91421 7.14188 10.25 7.47766 10.25 7.89188Z" fill="#B5D6FF" stroke="black" stroke-width="0.5"/>
</svg>
