<svg width="39" height="18" viewBox="0 0 39 18" fill="none" xmlns="http://www.w3.org/2000/svg">
<path d="M20.75 10C20.75 10.4142 20.4142 10.75 20 10.75C19.5858 10.75 19.25 10.4142 19.25 10C19.25 9.58579 19.5858 9.25 20 9.25C20.4142 9.25 20.75 9.58579 20.75 10Z" fill="#B5D6FF" stroke="black" stroke-width="0.5"/>
<path d="M23.25 10C23.25 10.4142 22.9142 10.75 22.5 10.75C22.0858 10.75 21.75 10.4142 21.75 10C21.75 9.58579 22.0858 9.25 22.5 9.25C22.9142 9.25 23.25 9.58579 23.25 10Z" fill="#B5D6FF" stroke="black" stroke-width="0.5"/>
<path d="M25.75 10C25.75 10.4142 25.4142 10.75 25 10.75C24.5858 10.75 24.25 10.4142 24.25 10C24.25 9.58579 24.5858 9.25 25 9.25C25.4142 9.25 25.75 9.58579 25.75 10Z" fill="#B5D6FF" stroke="black" stroke-width="0.5"/>
<path d="M36 17L38 14L2 12L4.5 17H36Z" stroke="black" stroke-linecap="round" stroke-linejoin="round"/>
<path d="M5 12L5.66667 10M11.5 12.5L11 9H6L5.66667 10M5.66667 10L1 8M16 12.5L18 8H19M34 13.5L29 8H27M19 8V4H25L25.75 5.5M19 8H27M27 8L25.75 5.5M25.75 5.5L35 1" stroke="black" stroke-linecap="round" stroke-linejoin="round"/>
</svg>
